<?xml version="1.0" encoding="UTF-8"?>
<!DOCTYPE svg PUBLIC "-//W3C//DTD SVG 1.1//EN" "http://www.w3.org/Graphics/SVG/1.1/DTD/svg11.dtd">
<svg xmlns="http://www.w3.org/2000/svg" version="1.1" width="1000px" height="1000px" style="shape-rendering:geometricPrecision; text-rendering:geometricPrecision; image-rendering:optimizeQuality; fill-rule:evenodd; clip-rule:evenodd" xmlns:xlink="http://www.w3.org/1999/xlink">
<g><path style="opacity:0.943" fill="#dbdde0" d="M 517.5,214.5 C 510.645,214.527 503.979,213.527 497.5,211.5C 489.503,197.509 482.003,183.175 475,168.5C 461.442,180.574 446.942,191.241 431.5,200.5C 428.15,200.665 424.817,200.498 421.5,200C 416.503,199.568 411.837,198.401 407.5,196.5C 428.125,184.517 449.125,173.017 470.5,162C 425.552,156.942 381.219,148.942 337.5,138C 357.366,157.034 377.033,176.201 396.5,195.5C 387.079,194.143 377.746,192.476 368.5,190.5C 368.5,189.833 368.167,189.5 367.5,189.5C 354.248,172.681 340.748,156.014 327,139.5C 321.003,144 315.17,148.667 309.5,153.5C 309.825,146.313 309.491,139.313 308.5,132.5C 328.8,121.109 349.8,110.942 371.5,102C 395.267,92.4104 419.267,83.4104 443.5,75C 447.108,73.6772 450.775,73.0105 454.5,73C 461.278,95.6664 469.445,117.833 479,139.5C 491.32,164.808 504.154,189.808 517.5,214.5 Z M 448.5,80.5 C 449.5,80.5 450.5,80.5 451.5,80.5C 453.774,104.204 459.108,127.204 467.5,149.5C 426.511,141.947 385.178,135.113 343.5,129C 377.571,110.628 412.571,94.4618 448.5,80.5 Z"/></g>
<g><path style="opacity:0.961" fill="#bec5cb" d="M 308.5,132.5 C 309.491,139.313 309.825,146.313 309.5,153.5C 306.453,156.545 303.787,159.878 301.5,163.5C 300.507,155.016 300.174,146.349 300.5,137.5C 302.794,135.347 305.46,133.68 308.5,132.5 Z"/></g>
<g><path style="opacity:0.977" fill="#abb2bb" d="M 300.5,137.5 C 300.174,146.349 300.507,155.016 301.5,163.5C 299.607,166.618 298.274,169.951 297.5,173.5C 287.893,171.859 280.893,166.859 276.5,158.5C 282.647,149.351 290.647,142.351 300.5,137.5 Z"/></g>
<g><path style="opacity:0.967" fill="#a91d22" d="M 276.5,158.5 C 280.893,166.859 287.893,171.859 297.5,173.5C 320.306,181.034 343.639,186.368 367.5,189.5C 368.167,189.5 368.5,189.833 368.5,190.5C 377.746,192.476 387.079,194.143 396.5,195.5C 400.179,195.724 403.846,196.058 407.5,196.5C 411.837,198.401 416.503,199.568 421.5,200C 424.817,200.498 428.15,200.665 431.5,200.5C 453.406,204.535 475.406,208.202 497.5,211.5C 503.979,213.527 510.645,214.527 517.5,214.5C 584.295,223.365 649.628,238.532 713.5,260C 758.463,275.469 799.129,298.136 835.5,328C 859.733,349.387 880.066,373.887 896.5,401.5C 797.862,419.159 700.529,442.492 604.5,471.5C 597.443,472.522 590.777,474.522 584.5,477.5C 562.105,484.298 539.772,491.298 517.5,498.5C 512.832,499.889 508.165,501.389 503.5,503C 502.944,503.383 502.611,503.883 502.5,504.5C 501.833,504.5 501.167,504.5 500.5,504.5C 495.762,505.698 491.095,507.198 486.5,509C 485.058,509.377 484.058,510.21 483.5,511.5C 461.196,519.046 439.196,527.379 417.5,536.5C 412.28,537.449 407.614,539.449 403.5,542.5C 402.167,542.833 400.833,543.167 399.5,543.5C 391.464,546.065 383.797,549.398 376.5,553.5C 353.592,563.62 330.925,574.287 308.5,585.5C 300.08,588.208 292.414,592.208 285.5,597.5C 271.008,604.912 256.674,612.579 242.5,620.5C 235.89,623.808 229.556,627.642 223.5,632C 219.57,633.477 215.57,634.644 211.5,635.5C 250.69,603.481 287.19,568.481 321,530.5C 342.479,505.565 360.479,478.232 375,448.5C 398.788,396.846 400.455,344.512 380,291.5C 371.973,274.494 361.973,258.827 350,244.5C 326.972,221.138 303.639,198.138 280,175.5C 277.073,171.644 275.239,167.31 274.5,162.5C 274.668,160.829 275.335,159.496 276.5,158.5 Z M 313.5,191.5 C 329.203,195.676 344.87,200.009 360.5,204.5C 367.587,223.852 373.587,243.518 378.5,263.5C 369.751,250.365 360.251,237.698 350,225.5C 338.54,213.199 326.373,201.866 313.5,191.5 Z M 370.5,206.5 C 401.58,212.616 432.58,218.783 463.5,225C 438.53,238.32 415.863,254.82 395.5,274.5C 388.738,251.211 380.405,228.545 370.5,206.5 Z M 486.5,284.5 C 486.095,292.168 485.595,299.835 485,307.5C 481.596,306.199 478.096,305.199 474.5,304.5C 452.561,297.678 430.561,290.845 408.5,284C 415.833,275.333 423.833,267.333 432.5,260C 446.91,248.712 461.41,237.546 476,226.5C 482.15,245.397 485.65,264.73 486.5,284.5 Z M 554.5,272.5 C 535.949,282.023 518.116,292.69 501,304.5C 499.585,301.042 499.085,297.375 499.5,293.5C 499.696,286.04 499.029,278.707 497.5,271.5C 496.798,263.689 495.298,256.022 493,248.5C 490.626,241.379 488.293,234.379 486,227.5C 523.937,233.887 561.771,241.054 599.5,249C 599.833,249.333 600.167,249.667 600.5,250C 584.759,256.847 569.426,264.347 554.5,272.5 Z M 573.5,347.5 C 569.836,344.665 565.836,342.332 561.5,340.5C 560.486,339.326 559.153,338.66 557.5,338.5C 549.818,333.992 541.818,329.992 533.5,326.5C 528.337,323.779 523.004,321.446 517.5,319.5C 515.86,318.68 514.193,317.847 512.5,317C 519.048,312.279 525.715,307.779 532.5,303.5C 542.537,296.82 552.537,290.154 562.5,283.5C 575.445,276.023 588.445,268.523 601.5,261C 606.046,258.385 610.713,256.385 615.5,255C 607.976,288.548 594.81,319.715 576,348.5C 575.329,347.748 574.496,347.414 573.5,347.5 Z M 599.5,345.5 C 613.162,317.343 621.662,287.676 625,256.5C 668.543,266.015 710.71,280.182 751.5,299C 699.578,310.587 648.911,326.087 599.5,345.5 Z M 467.5,325.5 C 468.766,326.09 470.099,326.59 471.5,327C 468.669,328.666 466.336,330.832 464.5,333.5C 443.64,350.185 423.807,368.185 405,387.5C 407.125,361.777 406.292,336.11 402.5,310.5C 402.833,309.167 403.167,307.833 403.5,306.5C 425.209,311.626 446.542,317.959 467.5,325.5 Z M 757.5,307.5 C 758.552,307.351 759.552,307.517 760.5,308C 754.457,317.253 748.291,326.42 742,335.5C 716.326,368.002 690.493,400.335 664.5,432.5C 647.175,406.338 625.842,383.838 600.5,365C 651.71,342.544 704.043,323.377 757.5,307.5 Z M 771.5,309.5 C 799.555,324.721 825.555,342.887 849.5,364C 860.5,375 871.5,386 882.5,397C 851.344,399.351 820.344,403.017 789.5,408C 753.554,413.989 717.887,420.989 682.5,429C 713.613,402.24 739.113,371.073 759,335.5C 763.451,326.933 767.617,318.267 771.5,309.5 Z M 499.5,338.5 C 513.112,344.639 526.445,351.306 539.5,358.5C 544.299,360.733 548.965,363.233 553.5,366C 549.77,368.193 546.103,370.36 542.5,372.5C 525.188,380.486 508.521,389.486 492.5,399.5C 485.329,403.251 478.329,407.251 471.5,411.5C 470.577,412.303 469.577,412.47 468.5,412C 469.582,410.67 470.249,409.17 470.5,407.5C 474.868,401.43 478.202,394.764 480.5,387.5C 487.47,371.422 492.97,354.756 497,337.5C 497.671,338.252 498.504,338.586 499.5,338.5 Z M 468.5,378.5 C 464.694,387.251 460.694,395.918 456.5,404.5C 452.35,412.801 447.683,420.801 442.5,428.5C 437.316,423.482 431.983,418.649 426.5,414C 420.294,410.403 414.294,406.569 408.5,402.5C 425.073,386.229 442.406,370.895 460.5,356.5C 465.486,352.845 470.153,348.845 474.5,344.5C 476.371,344.141 477.871,343.141 479,341.5C 476.602,354.085 473.102,366.418 468.5,378.5 Z M 482.5,491.5 C 490.5,483.833 498.5,476.167 506.5,468.5C 515.495,460.338 523.995,451.672 532,442.5C 534.741,439.271 537.241,435.938 539.5,432.5C 545.841,426.323 551.674,419.656 557,412.5C 560.414,407.934 563.58,403.268 566.5,398.5C 571.067,393.043 575.4,387.377 579.5,381.5C 604.915,397.911 628.582,416.578 650.5,437.5C 593.811,453.339 537.811,471.339 482.5,491.5 Z M 549.5,389.5 C 544.936,396.948 540.103,404.281 535,411.5C 520.927,429.395 507.094,447.395 493.5,465.5C 484.211,475.39 475.377,485.723 467,496.5C 466.224,477.393 461.39,459.393 452.5,442.5C 455.875,440.109 459.208,437.776 462.5,435.5C 467.5,433.336 472.167,430.669 476.5,427.5C 485.167,422.833 493.833,418.167 502.5,413.5C 514.042,406.897 525.708,400.563 537.5,394.5C 541.5,392.833 545.5,391.167 549.5,389.5 Z M 370.5,482.5 C 381.555,464.724 390.722,446.057 398,426.5C 407.156,430.829 415.656,436.162 423.5,442.5C 405.82,455.851 388.153,469.184 370.5,482.5 Z M 341.5,549.5 C 367.582,530.27 392.082,508.937 415,485.5C 422.333,476.833 429.667,468.167 437,459.5C 438,458.167 439,458.167 440,459.5C 447.645,470.419 452.978,482.419 456,495.5C 456.758,497.769 456.591,499.936 455.5,502C 416.905,516.466 378.905,532.299 341.5,549.5 Z M 414.5,466.5 C 387.348,500 355.348,527.667 318.5,549.5C 330.611,535.457 342.611,521.291 354.5,507C 374.126,492.861 394.126,479.361 414.5,466.5 Z"/></g>
<g><path style="opacity:0.975" fill="#b52123" d="M 497.5,271.5 C 499.029,278.707 499.696,286.04 499.5,293.5C 486.679,308.144 478.346,325.144 474.5,344.5C 470.153,348.845 465.486,352.845 460.5,356.5C 461.355,348.748 462.688,341.081 464.5,333.5C 466.336,330.832 468.669,328.666 471.5,327C 470.099,326.59 468.766,326.09 467.5,325.5C 470.035,318.562 472.368,311.562 474.5,304.5C 478.096,305.199 481.596,306.199 485,307.5C 485.595,299.835 486.095,292.168 486.5,284.5C 489.791,279.873 493.458,275.54 497.5,271.5 Z"/></g>
<g><path style="opacity:0.983" fill="#c02525" d="M 554.5,272.5 C 556.074,272.937 557.241,273.937 558,275.5C 559.274,278.391 560.774,281.058 562.5,283.5C 552.537,290.154 542.537,296.82 532.5,303.5C 523.19,298.726 514.524,299.893 506.5,307C 491.82,323.674 483.32,343.174 481,365.5C 480.5,371 480,376.5 479.5,382C 479.506,384.033 479.839,385.866 480.5,387.5C 478.202,394.764 474.868,401.43 470.5,407.5C 469.1,397.654 468.433,387.988 468.5,378.5C 473.102,366.418 476.602,354.085 479,341.5C 477.871,343.141 476.371,344.141 474.5,344.5C 478.346,325.144 486.679,308.144 499.5,293.5C 499.085,297.375 499.585,301.042 501,304.5C 518.116,292.69 535.949,282.023 554.5,272.5 Z"/></g>
<g><path style="opacity:0.984" fill="#cb2927" d="M 532.5,303.5 C 525.715,307.779 519.048,312.279 512.5,317C 514.193,317.847 515.86,318.68 517.5,319.5C 508.804,323.198 502.804,329.532 499.5,338.5C 498.504,338.586 497.671,338.252 497,337.5C 492.97,354.756 487.47,371.422 480.5,387.5C 479.839,385.866 479.506,384.033 479.5,382C 480,376.5 480.5,371 481,365.5C 483.32,343.174 491.82,323.674 506.5,307C 514.524,299.893 523.19,298.726 532.5,303.5 Z"/></g>
<g><path style="opacity:0.99" fill="#d82d28" d="M 517.5,319.5 C 523.004,321.446 528.337,323.779 533.5,326.5C 538.472,336.687 540.472,347.354 539.5,358.5C 526.445,351.306 513.112,344.639 499.5,338.5C 502.804,329.532 508.804,323.198 517.5,319.5 Z"/></g>
<g><path style="opacity:0.972" fill="#c82726" d="M 533.5,326.5 C 541.818,329.992 549.818,333.992 557.5,338.5C 555.688,347.781 554.855,357.448 555,367.5C 554.41,373.95 553.243,380.284 551.5,386.5C 552.981,387.944 552.648,388.611 550.5,388.5C 549.833,388.5 549.5,388.833 549.5,389.5C 545.5,391.167 541.5,392.833 537.5,394.5C 539.795,387.318 541.462,379.984 542.5,372.5C 546.103,370.36 549.77,368.193 553.5,366C 548.965,363.233 544.299,360.733 539.5,358.5C 540.472,347.354 538.472,336.687 533.5,326.5 Z"/></g>
<g><path style="opacity:0.99" fill="#bf2425" d="M 557.5,338.5 C 559.153,338.66 560.486,339.326 561.5,340.5C 562.64,373.272 555.306,403.938 539.5,432.5C 537.241,435.938 534.741,439.271 532,442.5C 523.995,451.672 515.495,460.338 506.5,468.5C 502.317,467.373 497.983,466.373 493.5,465.5C 507.094,447.395 520.927,429.395 535,411.5C 540.103,404.281 544.936,396.948 549.5,389.5C 550.167,389.5 550.5,389.167 550.5,388.5C 552.648,388.611 552.981,387.944 551.5,386.5C 553.243,380.284 554.41,373.95 555,367.5C 554.855,357.448 555.688,347.781 557.5,338.5 Z"/></g>
<g><path style="opacity:0.975" fill="#b62123" d="M 561.5,340.5 C 565.836,342.332 569.836,344.665 573.5,347.5C 572.886,364.747 570.553,381.747 566.5,398.5C 563.58,403.268 560.414,407.934 557,412.5C 551.674,419.656 545.841,426.323 539.5,432.5C 555.306,403.938 562.64,373.272 561.5,340.5 Z"/></g>
<g><path style="opacity:0.96" fill="#d82d28" d="M 542.5,372.5 C 541.462,379.984 539.795,387.318 537.5,394.5C 525.708,400.563 514.042,406.897 502.5,413.5C 498.186,409.541 494.853,404.874 492.5,399.5C 508.521,389.486 525.188,380.486 542.5,372.5 Z"/></g>
<g><path style="opacity:0.965" fill="#b42023" d="M 468.5,378.5 C 468.433,387.988 469.1,397.654 470.5,407.5C 470.249,409.17 469.582,410.67 468.5,412C 469.577,412.47 470.577,412.303 471.5,411.5C 471.457,414.91 471.957,418.243 473,421.5C 473.353,424.152 474.52,426.152 476.5,427.5C 472.167,430.669 467.5,433.336 462.5,435.5C 459.762,425.207 457.762,414.874 456.5,404.5C 460.694,395.918 464.694,387.251 468.5,378.5 Z"/></g>
<g><path style="opacity:0.956" fill="#c42625" d="M 492.5,399.5 C 494.853,404.874 498.186,409.541 502.5,413.5C 493.833,418.167 485.167,422.833 476.5,427.5C 474.52,426.152 473.353,424.152 473,421.5C 471.957,418.243 471.457,414.91 471.5,411.5C 478.329,407.251 485.329,403.251 492.5,399.5 Z"/></g>
<g><path style="opacity:0.975" fill="#ececed" d="M 604.5,471.5 C 617.12,560.73 611.286,648.73 587,735.5C 570.217,788.52 548.384,839.354 521.5,888C 470.702,887.411 420.369,882.245 370.5,872.5C 367.503,865.162 363.503,858.495 358.5,852.5C 403.496,839.447 448.496,826.28 493.5,813C 509.648,808.062 525.648,802.729 541.5,797C 497.51,792.877 455.01,782.71 414,766.5C 397.033,792.124 378.866,816.79 359.5,840.5C 358.504,840.586 357.671,840.252 357,839.5C 354.938,836.277 353.104,832.943 351.5,829.5C 363.894,809.055 376.561,788.721 389.5,768.5C 389.167,768.167 388.833,767.833 388.5,767.5C 370.379,773.613 352.046,778.946 333.5,783.5C 333.611,782.883 333.944,782.383 334.5,782C 332.267,778.349 329.934,774.849 327.5,771.5C 345.474,764.784 363.474,757.95 381.5,751C 355.854,737.236 333.687,719.069 315,696.5C 308.302,704.692 301.469,712.692 294.5,720.5C 292.582,715.657 289.916,711.323 286.5,707.5C 289.527,701.628 293.193,696.128 297.5,691C 289.495,692.167 281.495,693.667 273.5,695.5C 269.868,692.263 267.201,688.263 265.5,683.5C 275.861,680.492 286.194,677.325 296.5,674C 296.957,673.586 297.291,673.086 297.5,672.5C 291.016,660.533 286.516,647.867 284,634.5C 283.052,622.049 283.552,609.716 285.5,597.5C 292.414,592.208 300.08,588.208 308.5,585.5C 301.997,609.103 303.83,632.103 314,654.5C 314.687,656.555 315.854,658.221 317.5,659.5C 339.741,625.693 359.408,590.36 376.5,553.5C 383.797,549.398 391.464,546.065 399.5,543.5C 384.604,583.203 366.271,621.203 344.5,657.5C 345,657.833 345.5,658.167 346,658.5C 384.551,646.798 422.384,633.298 459.5,618C 434.068,597.751 415.401,572.584 403.5,542.5C 407.614,539.449 412.28,537.449 417.5,536.5C 428.083,564.728 445.416,587.728 469.5,605.5C 479.587,574.978 484.254,543.645 483.5,511.5C 484.058,510.21 485.058,509.377 486.5,509C 491.095,507.198 495.762,505.698 500.5,504.5C 500.504,538.804 495.838,572.47 486.5,605.5C 486.833,606.167 487.167,606.833 487.5,607.5C 516.042,594.896 543.709,580.73 570.5,565C 576.779,561.054 582.779,556.721 588.5,552C 559.328,536.918 530.662,521.084 502.5,504.5C 502.611,503.883 502.944,503.383 503.5,503C 508.165,501.389 512.832,499.889 517.5,498.5C 540.656,514.957 564.656,530.29 589.5,544.5C 589.703,522.062 588.037,499.729 584.5,477.5C 590.777,474.522 597.443,472.522 604.5,471.5 Z M 500.5,504.5 C 501.167,504.5 501.833,504.5 502.5,504.5C 530.662,521.084 559.328,536.918 588.5,552C 582.779,556.721 576.779,561.054 570.5,565C 543.709,580.73 516.042,594.896 487.5,607.5C 487.167,606.833 486.833,606.167 486.5,605.5C 495.838,572.47 500.504,538.804 500.5,504.5 Z M 589.5,561.5 C 590.719,596.235 588.386,630.902 582.5,665.5C 549.435,656.427 518.768,642.261 490.5,623C 520.157,607.511 548.824,590.511 576.5,572C 581.269,568.96 585.603,565.46 589.5,561.5 Z M 478.5,631.5 C 510.329,650.24 544.329,663.74 580.5,672C 564.073,680.214 547.406,687.881 530.5,695C 498.388,708.235 466.055,720.569 433.5,732C 451.114,699.651 466.114,666.151 478.5,631.5 Z M 455.5,638.5 C 456.239,638.369 456.906,638.536 457.5,639C 442.321,674.86 424.654,709.36 404.5,742.5C 376.422,726.929 352.089,706.762 331.5,682C 358.079,674.474 384.412,666.141 410.5,657C 425.817,651.333 440.817,645.166 455.5,638.5 Z M 578.5,680.5 C 579.097,680.735 579.43,681.235 579.5,682C 570.682,718.95 560.349,755.45 548.5,791.5C 506.068,784.562 465.402,772.062 426.5,754C 474.432,733.018 521.765,710.685 568.5,687C 572.069,685.058 575.402,682.892 578.5,680.5 Z M 542.5,803.5 C 543.239,803.369 543.906,803.536 544.5,804C 535.644,830.24 525.81,856.074 515,881.5C 467.576,875.179 420.41,867.179 373.5,857.5C 408.807,849.538 443.807,840.371 478.5,830C 500.494,822.495 521.828,813.661 542.5,803.5 Z"/></g>
<g><path style="opacity:0.92" fill="#bdc2c8" d="M 242.5,620.5 C 230.612,628.636 219.612,637.97 209.5,648.5C 207.331,646.66 205.998,644.326 205.5,641.5C 207.194,639.139 209.194,637.139 211.5,635.5C 215.57,634.644 219.57,633.477 223.5,632C 229.556,627.642 235.89,623.808 242.5,620.5 Z"/></g>
<g><path style="opacity:0.979" fill="#919da9" d="M 205.5,641.5 C 205.998,644.326 207.331,646.66 209.5,648.5C 193.008,665.475 181.674,685.475 175.5,708.5C 175.667,708.833 175.833,709.167 176,709.5C 189.047,705.446 202.213,701.78 215.5,698.5C 217.592,701.681 219.925,704.681 222.5,707.5C 207.052,711.61 191.385,715.277 175.5,718.5C 178.465,737.763 186.299,754.763 199,769.5C 207.363,778.197 216.03,786.531 225,794.5C 234.307,780.043 244.141,766.043 254.5,752.5C 255.922,752.709 257.255,753.209 258.5,754C 259.488,756.167 260.821,758 262.5,759.5C 251.946,772.559 241.946,786.059 232.5,800C 233.459,801.464 234.792,802.297 236.5,802.5C 249.444,797.963 262.444,793.63 275.5,789.5C 277.592,789.561 279.092,790.561 280,792.5C 280.492,791.451 280.326,790.451 279.5,789.5C 280.002,788.479 280.668,788.312 281.5,789C 282.805,791.787 284.472,794.287 286.5,796.5C 272.811,800.34 259.145,804.34 245.5,808.5C 263.946,820.89 283.613,830.89 304.5,838.5C 307.689,845.706 311.356,852.706 315.5,859.5C 273.904,849.368 235.571,832.201 200.5,808C 185.291,797.125 172.458,783.958 162,768.5C 146.638,742.337 146.972,716.337 163,690.5C 174.476,671.855 188.643,655.522 205.5,641.5 Z"/></g>
<g><path style="opacity:0.946" fill="#c6cbd1" d="M 265.5,683.5 C 267.201,688.263 269.868,692.263 273.5,695.5C 264.625,697.969 255.625,700.303 246.5,702.5C 244.783,698.474 243.117,694.474 241.5,690.5C 249.5,688.167 257.5,685.833 265.5,683.5 Z"/></g>
<g><path style="opacity:0.929" fill="#a6afb9" d="M 241.5,690.5 C 243.117,694.474 244.783,698.474 246.5,702.5C 238.499,704.167 230.499,705.834 222.5,707.5C 219.925,704.681 217.592,701.681 215.5,698.5C 224.011,695.665 232.677,692.999 241.5,690.5 Z"/></g>
<g><path style="opacity:0.945" fill="#d2d5da" d="M 286.5,707.5 C 289.916,711.323 292.582,715.657 294.5,720.5C 289.47,726.525 284.47,732.525 279.5,738.5C 278.667,733.485 276.334,729.485 272.5,726.5C 276.446,719.595 281.113,713.262 286.5,707.5 Z"/></g>
<g><path style="opacity:0.986" fill="#b4bbc3" d="M 272.5,726.5 C 276.334,729.485 278.667,733.485 279.5,738.5C 274.062,745.723 268.396,752.723 262.5,759.5C 260.821,758 259.488,756.167 258.5,754C 257.255,753.209 255.922,752.709 254.5,752.5C 260.117,743.553 266.117,734.886 272.5,726.5 Z"/></g>
<g><path style="opacity:0.957" fill="#d2d6da" d="M 327.5,771.5 C 329.934,774.849 332.267,778.349 334.5,782C 333.944,782.383 333.611,782.883 333.5,783.5C 325.88,785.988 318.213,788.322 310.5,790.5C 308.883,786.526 307.217,782.526 305.5,778.5C 312.7,775.767 320.034,773.433 327.5,771.5 Z"/></g>
<g><path style="opacity:0.938" fill="#b5bcc4" d="M 305.5,778.5 C 307.217,782.526 308.883,786.526 310.5,790.5C 302.5,792.5 294.5,794.5 286.5,796.5C 284.472,794.287 282.805,791.787 281.5,789C 280.668,788.312 280.002,788.479 279.5,789.5C 280.326,790.451 280.492,791.451 280,792.5C 279.092,790.561 277.592,789.561 275.5,789.5C 285.43,785.854 295.43,782.188 305.5,778.5 Z"/></g>
<g><path style="opacity:0.951" fill="#a3acb6" d="M 304.5,838.5 C 309.393,839.796 314.06,841.462 318.5,843.5C 317.761,843.369 317.094,843.536 316.5,844C 320.636,850.444 324.636,856.944 328.5,863.5C 323.927,862.612 319.594,861.279 315.5,859.5C 311.356,852.706 307.689,845.706 304.5,838.5 Z"/></g>
<g><path style="opacity:0.959" fill="#b3bbc3" d="M 318.5,843.5 C 324.833,845.5 331.167,847.5 337.5,849.5C 339.566,855.463 342.566,860.963 346.5,866C 345.944,866.383 345.611,866.883 345.5,867.5C 339.772,866.318 334.105,864.984 328.5,863.5C 324.636,856.944 320.636,850.444 316.5,844C 317.094,843.536 317.761,843.369 318.5,843.5 Z"/></g>
<g><path style="opacity:0.948" fill="#cbcfd5" d="M 351.5,829.5 C 353.104,832.943 354.938,836.277 357,839.5C 357.671,840.252 358.504,840.586 359.5,840.5C 356.509,844.47 353.509,848.47 350.5,852.5C 353.156,853.614 355.823,853.614 358.5,852.5C 363.503,858.495 367.503,865.162 370.5,872.5C 362.133,870.96 353.799,869.293 345.5,867.5C 345.611,866.883 345.944,866.383 346.5,866C 342.566,860.963 339.566,855.463 337.5,849.5C 339.074,849.063 340.241,848.063 341,846.5C 344.024,840.434 347.524,834.768 351.5,829.5 Z"/></g>
<g><path style="opacity:0.826" fill="#221e1e" d="M 545.5,864.5 C 551.167,864.5 556.833,864.5 562.5,864.5C 562.5,865.833 562.5,867.167 562.5,868.5C 560.167,868.5 557.833,868.5 555.5,868.5C 555.5,875.5 555.5,882.5 555.5,889.5C 554.5,889.5 553.5,889.5 552.5,889.5C 552.5,882.5 552.5,875.5 552.5,868.5C 550.167,868.5 547.833,868.5 545.5,868.5C 545.5,867.167 545.5,865.833 545.5,864.5 Z"/></g>
<g><path style="opacity:0.75" fill="#221e1e" d="M 565.5,864.5 C 567.288,864.215 568.955,864.548 570.5,865.5C 573,871.167 575.5,876.833 578,882.5C 581.115,877 583.948,871.333 586.5,865.5C 587.689,864.571 589.022,864.238 590.5,864.5C 590.5,872.833 590.5,881.167 590.5,889.5C 589.5,889.5 588.5,889.5 587.5,889.5C 587.666,883.824 587.499,878.157 587,872.5C 584.667,877.833 582.333,883.167 580,888.5C 579.439,889.022 578.772,889.355 578,889.5C 574.835,884.504 572.169,879.171 570,873.5C 569.501,878.823 569.334,884.156 569.5,889.5C 568.167,889.5 566.833,889.5 565.5,889.5C 565.5,881.167 565.5,872.833 565.5,864.5 Z"/></g>
</svg>
